<?xml version="1.0" encoding="utf-8"?>
<!-- Generator: Adobe Illustrator 15.0.0, SVG Export Plug-In . SVG Version: 6.00 Build 0)  -->
<!DOCTYPE svg PUBLIC "-//W3C//DTD SVG 1.1//EN" "http://www.w3.org/Graphics/SVG/1.1/DTD/svg11.dtd">
<svg version="1.1" id="Layer_2" xmlns="http://www.w3.org/2000/svg" xmlns:xlink="http://www.w3.org/1999/xlink" x="0px" y="0px"
	 width="448.235px" height="244.47px" viewBox="0 0 448.235 244.47" enable-background="new 0 0 448.235 244.47"
	 xml:space="preserve">
<g>
	<g>
		<g>
			<linearGradient id="SVGID_1_" gradientUnits="userSpaceOnUse" x1="192.4604" y1="86.4448" x2="233.1152" y2="86.4448">
				<stop  offset="0" style="stop-color:#4AB0D5"/>
				<stop  offset="0.0935" style="stop-color:#44A2CE"/>
				<stop  offset="0.2657" style="stop-color:#3C8DC4"/>
				<stop  offset="0.4417" style="stop-color:#377EBC"/>
				<stop  offset="0.6207" style="stop-color:#3373B7"/>
				<stop  offset="0.8044" style="stop-color:#316DB5"/>
				<stop  offset="1" style="stop-color:#306BB5"/>
			</linearGradient>
			<path fill="url(#SVGID_1_)" d="M223.199,73.67H192.46c3.217,5.74,6.211,7.371,6.211,7.371c4.666,1.806,20.772,2.107,20.772,2.107
				l9.161,16.071c1.099-3.577,2.582-7.352,4.511-11.152L223.199,73.67z"/>
			<linearGradient id="SVGID_2_" gradientUnits="userSpaceOnUse" x1="187.3877" y1="58.1694" x2="255.9473" y2="58.1694">
				<stop  offset="0" style="stop-color:#4AB0D5"/>
				<stop  offset="0.0935" style="stop-color:#44A2CE"/>
				<stop  offset="0.2657" style="stop-color:#3C8DC4"/>
				<stop  offset="0.4417" style="stop-color:#377EBC"/>
				<stop  offset="0.6207" style="stop-color:#3373B7"/>
				<stop  offset="0.8044" style="stop-color:#316DB5"/>
				<stop  offset="1" style="stop-color:#306BB5"/>
			</linearGradient>
			<path fill="url(#SVGID_2_)" d="M238.861,32.122l-0.005,0.026c-0.924-2.069-2.811,0.045-2.811,0.045
				c-1.675,4.818-5.062,10.395-5.062,10.395c1.807,0.414,4.901-0.237,6.054-0.244l-0.585,2.572c-7.827,0-25.137,5.118-25.137,5.118
				c-2.107,5.72-8.429,8.128-8.429,8.128l-15.499,1.806c1.037,4.375,2.279,7.884,3.554,10.692h32.818
				c0.052,0,0.095,0.024,0.146,0.029c0.499-0.025,1,0.172,1.308,0.611l9.509,13.798c2.046-3.573,4.506-7.133,7.523-10.543
				L230.7,58.123h-8.561c-0.581,1.096-1.719,1.85-3.046,1.85c-1.912,0-3.462-1.55-3.462-3.462s1.55-3.462,3.462-3.462
				c1.414,0,2.625,0.85,3.164,2.064h9.005c0.052,0,0.095,0.024,0.146,0.029c0.498-0.025,0.999,0.172,1.308,0.612l11.625,16.549
				c3.281-3.359,7.105-6.541,11.606-9.391C244.558,52.803,238.861,32.122,238.861,32.122z"/>
		</g>
		<linearGradient id="SVGID_3_" gradientUnits="userSpaceOnUse" x1="165.6748" y1="57.8228" x2="282.5596" y2="57.8228">
			<stop  offset="0" style="stop-color:#4AB0D5"/>
			<stop  offset="0.0935" style="stop-color:#44A2CE"/>
			<stop  offset="0.2657" style="stop-color:#3C8DC4"/>
			<stop  offset="0.4417" style="stop-color:#377EBC"/>
			<stop  offset="0.6207" style="stop-color:#3373B7"/>
			<stop  offset="0.8044" style="stop-color:#316DB5"/>
			<stop  offset="1" style="stop-color:#306BB5"/>
		</linearGradient>
		<path fill="url(#SVGID_3_)" d="M282.56,7.489c0-4.129-3.361-7.489-7.488-7.489c-4.13,0-7.488,3.359-7.488,7.489
			c0,3.071,1.859,5.714,4.511,6.868V34.33c-9.241-18.397-28.279-31.06-50.232-31.06c-30.982,0-56.187,25.206-56.187,56.187
			c0,30.981,25.205,56.188,56.187,56.188c30.981,0,56.187-25.207,56.187-56.188c0-0.061-0.005-0.12-0.005-0.181
			c0-0.012,0.005-0.022,0.005-0.034V14.356C280.699,13.202,282.56,10.56,282.56,7.489z M221.862,109.624
			c-27.662,0-50.166-22.505-50.166-50.166c0-27.662,22.504-50.166,50.166-50.166c27.661,0,50.166,22.504,50.166,50.166
			C272.027,87.119,249.522,109.624,221.862,109.624z M275.071,4.817c1.472,0,2.672,1.198,2.672,2.672c0,1.473-1.2,2.672-2.672,2.672
			c-1.475,0-2.672-1.199-2.672-2.672C272.399,6.015,273.597,4.817,275.071,4.817z"/>
		<g>
			<linearGradient id="SVGID_4_" gradientUnits="userSpaceOnUse" x1="201.1079" y1="22.397" x2="207.1289" y2="22.397">
				<stop  offset="0" style="stop-color:#4AB0D5"/>
				<stop  offset="0.0935" style="stop-color:#44A2CE"/>
				<stop  offset="0.2657" style="stop-color:#3C8DC4"/>
				<stop  offset="0.4417" style="stop-color:#377EBC"/>
				<stop  offset="0.6207" style="stop-color:#3373B7"/>
				<stop  offset="0.8044" style="stop-color:#316DB5"/>
				<stop  offset="1" style="stop-color:#306BB5"/>
			</linearGradient>
			<circle fill="url(#SVGID_4_)" cx="204.119" cy="22.397" r="3.01"/>
			<linearGradient id="SVGID_5_" gradientUnits="userSpaceOnUse" x1="209.3804" y1="29.2979" x2="261.0254" y2="29.2979">
				<stop  offset="0" style="stop-color:#4AB0D5"/>
				<stop  offset="0.0935" style="stop-color:#44A2CE"/>
				<stop  offset="0.2657" style="stop-color:#3C8DC4"/>
				<stop  offset="0.4417" style="stop-color:#377EBC"/>
				<stop  offset="0.6207" style="stop-color:#3373B7"/>
				<stop  offset="0.8044" style="stop-color:#316DB5"/>
				<stop  offset="1" style="stop-color:#306BB5"/>
			</linearGradient>
			<path fill="url(#SVGID_5_)" d="M211.084,16.894c-2.866,0.525-1.837,4.922,1.019,4.399c17.574-3.221,36.648,3.496,44.703,20.087
				c1.272,2.62,5.243,0.466,3.973-2.149C251.829,20.793,230.592,13.318,211.084,16.894z"/>
		</g>
	</g>
	<g>
		<linearGradient id="SVGID_6_" gradientUnits="userSpaceOnUse" x1="48.7222" y1="132.4917" x2="48.7222" y2="194.4448">
			<stop  offset="0" style="stop-color:#4AB0D5"/>
			<stop  offset="0.0935" style="stop-color:#44A2CE"/>
			<stop  offset="0.2657" style="stop-color:#3C8DC4"/>
			<stop  offset="0.4417" style="stop-color:#377EBC"/>
			<stop  offset="0.6207" style="stop-color:#3373B7"/>
			<stop  offset="0.8044" style="stop-color:#316DB5"/>
			<stop  offset="1" style="stop-color:#306BB5"/>
		</linearGradient>
		<path fill="url(#SVGID_6_)" d="M0,132.492h10.09v43.723l66.2-43.723l17.878,0.176l-30.887,20.271
			c-17.259,11.326-38.235,25.133-53.191,34.868L0,194.357V132.492z M51.952,168.335l8.585-5.664
			c18.585,16.02,25.842,22.126,36.907,31.773H82.399l-15.136-13.009c-3.804-3.275-7.612-6.638-10.444-9.028
			c-1.68-1.416-3.274-2.742-4.78-3.984L51.952,168.335z"/>
		<linearGradient id="SVGID_7_" gradientUnits="userSpaceOnUse" x1="158.8354" y1="132.5796" x2="158.8354" y2="194.7114">
			<stop  offset="0" style="stop-color:#4AB0D5"/>
			<stop  offset="0.0935" style="stop-color:#44A2CE"/>
			<stop  offset="0.2657" style="stop-color:#3C8DC4"/>
			<stop  offset="0.4417" style="stop-color:#377EBC"/>
			<stop  offset="0.6207" style="stop-color:#3373B7"/>
			<stop  offset="0.8044" style="stop-color:#316DB5"/>
			<stop  offset="1" style="stop-color:#306BB5"/>
		</linearGradient>
		<path fill="url(#SVGID_7_)" d="M121.088,132.58h75.494c9.56,0,17.436,7.345,17.436,16.552v29.029
			c0,9.203-7.876,16.551-17.436,16.551h-75.494c-9.557,0-17.435-7.348-17.435-16.551v-29.029
			C103.653,139.924,111.531,132.58,121.088,132.58z M121,184.886h75.495c4.161,0,7.435-3.273,7.435-6.815v-29.029
			c0-3.629-3.274-6.725-7.435-6.725H121c-4.158,0-7.434,3.096-7.434,6.725v29.029C113.566,181.613,116.842,184.886,121,184.886z"/>
		<linearGradient id="SVGID_8_" gradientUnits="userSpaceOnUse" x1="276.2568" y1="132.5796" x2="276.2568" y2="194.5347">
			<stop  offset="0" style="stop-color:#4AB0D5"/>
			<stop  offset="0.0935" style="stop-color:#44A2CE"/>
			<stop  offset="0.2657" style="stop-color:#3C8DC4"/>
			<stop  offset="0.4417" style="stop-color:#377EBC"/>
			<stop  offset="0.6207" style="stop-color:#3373B7"/>
			<stop  offset="0.8044" style="stop-color:#316DB5"/>
			<stop  offset="1" style="stop-color:#306BB5"/>
		</linearGradient>
		<path fill="url(#SVGID_8_)" d="M221.119,142.317v-9.737h77.705v0.088c17.7,0,32.57,13.896,32.57,30.888
			c0,17.348-15.224,30.979-32.57,30.979h-77.705v-9.648h77.617c12.035,0,22.39-9.029,22.39-21.331
			c0-11.594-9.822-21.238-22.39-21.238H221.119z"/>
		<linearGradient id="SVGID_9_" gradientUnits="userSpaceOnUse" x1="391.5928" y1="132.6675" x2="391.5928" y2="194.6226">
			<stop  offset="0" style="stop-color:#4AB0D5"/>
			<stop  offset="0.0935" style="stop-color:#44A2CE"/>
			<stop  offset="0.2657" style="stop-color:#3C8DC4"/>
			<stop  offset="0.4417" style="stop-color:#377EBC"/>
			<stop  offset="0.6207" style="stop-color:#3373B7"/>
			<stop  offset="0.8044" style="stop-color:#316DB5"/>
			<stop  offset="1" style="stop-color:#306BB5"/>
		</linearGradient>
		<path fill="url(#SVGID_9_)" d="M391.594,132.667c6.283,6.639,42.835,46.731,56.642,61.955H434.78
			c-0.439-0.442-33.099-36.111-41.328-45.138l-1.858-2.035l-34.253,37.524h54.962l8.851,9.648h-86.204L391.594,132.667z"/>
	</g>
	<g>
		<path fill="#FFFFFF" d="M70.307,244.122h-2.969v-25.54h14.237v2.637H70.307v9.347h10.586v2.639H70.307V244.122z"/>
		<path fill="#FFFFFF" d="M114.423,244.122v-25.54h2.969v25.54H114.423z"/>
		<path fill="#FFFFFF" d="M172.969,244.122h-3.388l-13.958-21.435h-0.14c0.186,2.515,0.28,4.82,0.28,6.917v14.518h-2.742v-25.54
			h3.354l13.922,21.347h0.14c-0.023-0.313-0.075-1.325-0.156-3.031c-0.083-1.705-0.112-2.926-0.088-3.659v-14.656h2.778V244.122z"/>
		<path fill="#FFFFFF" d="M224.667,244.122l-3.179-8.124h-10.238l-3.145,8.124h-3.004l10.098-25.645h2.498l10.044,25.645H224.667z
			 M220.562,233.325l-2.97-7.912c-0.385-1.002-0.78-2.232-1.188-3.687c-0.255,1.117-0.623,2.347-1.1,3.687l-3.005,7.912H220.562z"/>
		<path fill="#FFFFFF" d="M279.825,244.122h-3.391l-13.957-21.435h-0.14c0.186,2.515,0.28,4.82,0.28,6.917v14.518h-2.743v-25.54
			h3.354l13.923,21.347h0.139c-0.023-0.313-0.075-1.325-0.156-3.031c-0.082-1.705-0.111-2.926-0.088-3.659v-14.656h2.778V244.122z"
			/>
		<path fill="#FFFFFF" d="M326.404,220.87c-2.807,0-5.022,0.934-6.646,2.804c-1.625,1.87-2.437,4.429-2.437,7.678
			c0,3.344,0.782,5.925,2.349,7.747c1.566,1.823,3.8,2.735,6.699,2.735c1.782,0,3.815-0.321,6.098-0.962v2.604
			c-1.77,0.663-3.955,0.995-6.552,0.995c-3.762,0-6.664-1.141-8.707-3.425c-2.044-2.281-3.066-5.525-3.066-9.729
			c0-2.633,0.492-4.938,1.477-6.918c0.983-1.98,2.404-3.507,4.263-4.578c1.856-1.071,4.044-1.606,6.56-1.606
			c2.679,0,5.019,0.488,7.021,1.468l-1.258,2.55C330.271,221.324,328.338,220.87,326.404,220.87z"/>
		<path fill="#FFFFFF" d="M380.898,244.122H366.66v-25.54h14.238v2.637H369.63v8.229h10.586v2.618H369.63v9.399h11.269V244.122z"/>
	</g>
</g>
</svg>
