<?xml version="1.0" encoding="utf-8"?>
<!-- Generator: Adobe Illustrator 15.0.0, SVG Export Plug-In . SVG Version: 6.00 Build 0)  -->
<!DOCTYPE svg PUBLIC "-//W3C//DTD SVG 1.1//EN" "http://www.w3.org/Graphics/SVG/1.1/DTD/svg11.dtd">
<svg version="1.1" xmlns="http://www.w3.org/2000/svg" xmlns:xlink="http://www.w3.org/1999/xlink" x="0px" y="0px"
	 width="816.845px" height="241.246px" viewBox="0 0 816.845 241.246" enable-background="new 0 0 816.845 241.246"
	 xml:space="preserve">
<g id="Layer_2">
	<g>
		<g>
			<polygon fill="#FFFFFF" points="362.729,39.192 356.467,28.478 356.471,28.474 339.833,0.008 339.825,0.004 339.823,0 
				339.821,0.001 339.818,0 339.816,0.004 339.81,0.008 323.172,28.474 323.175,28.478 237.948,174.301 271.241,174.301 
				339.821,56.96 346.082,67.674 			"/>
			<polygon fill="#FFFFFF" points="466.794,174.301 500.087,174.301 414.86,28.478 414.863,28.474 398.226,0.008 398.219,0.004 
				398.216,0 398.214,0.001 398.211,0 398.209,0.004 398.203,0.008 381.564,28.474 381.566,28.478 352.332,78.499 368.979,106.981 
				369.019,106.915 369.026,106.929 385.673,78.448 385.663,78.433 398.214,56.96 			"/>
		</g>
		<g>
			<polygon fill="#FFFFFF" points="607.189,174.301 640.482,174.301 555.256,28.478 555.259,28.474 538.621,0.008 538.614,0.004 
				538.611,0 538.609,0.001 538.608,0 538.604,0.004 538.599,0.008 521.96,28.474 521.961,28.478 492.729,78.499 509.375,106.981 
				509.414,106.915 509.422,106.929 526.069,78.448 526.06,78.433 538.609,56.96 			"/>
			<g>
				<polygon fill="#FFFFFF" points="445.017,60.223 461.663,88.706 480.216,56.96 486.478,67.674 503.125,39.192 496.862,28.478 
					496.866,28.474 480.229,0.008 480.221,0.004 480.219,0 480.216,0.001 480.214,0 480.212,0.004 480.205,0.008 463.567,28.474 
					463.569,28.478 				"/>
			</g>
		</g>
	</g>
	<g>
		<path fill="#0066BF" d="M94.083,132.217c0,13.031-4.69,23.299-14.068,30.803c-9.379,7.502-22.427,11.254-39.144,11.254
			c-15.401,0-29.025-2.896-40.871-8.688v-28.433c9.74,4.344,17.983,7.405,24.73,9.182C31.476,148.112,37.646,149,43.24,149
			c6.713,0,11.863-1.283,15.451-3.851c3.586-2.566,5.38-6.382,5.38-11.452c0-2.828-0.79-5.345-2.37-7.552
			c-1.58-2.203-3.899-4.327-6.96-6.367c-3.06-2.039-9.297-5.298-18.708-9.773c-8.82-4.147-15.435-8.129-19.844-11.946
			c-4.41-3.816-7.932-8.259-10.563-13.328c-2.633-5.067-3.949-10.991-3.949-17.77c0-12.769,4.327-22.805,12.982-30.111
			c8.654-7.306,20.617-10.958,35.886-10.958c7.502,0,14.66,0.888,21.473,2.665c6.811,1.777,13.935,4.279,21.374,7.503L83.52,59.853
			c-7.701-3.159-14.068-5.363-19.103-6.614c-5.035-1.25-9.988-1.876-14.858-1.876c-5.792,0-10.234,1.35-13.328,4.048
			c-3.094,2.7-4.64,6.219-4.64,10.563c0,2.7,0.625,5.053,1.875,7.06c1.25,2.008,3.241,3.949,5.973,5.824
			c2.73,1.876,9.197,5.249,19.399,10.119c13.491,6.452,22.738,12.918,27.741,19.399C91.581,114.858,94.083,122.806,94.083,132.217z"
			/>
		<path fill="#0066BF" d="M237.726,27.965v93.393c0,10.661-2.387,20.007-7.158,28.037c-4.772,8.03-11.666,14.184-20.682,18.462
			c-9.018,4.279-19.68,6.417-31.986,6.417c-18.56,0-32.974-4.754-43.24-14.266c-10.268-9.511-15.401-22.524-15.401-39.045V27.965
			h30.505v88.358c0,11.124,2.237,19.285,6.713,24.483c4.475,5.201,11.879,7.799,22.212,7.799c10.004,0,17.26-2.616,21.769-7.847
			c4.507-5.232,6.763-13.442,6.763-24.632v-88.16H237.726z"/>
		<path fill="#0066BF" d="M655.037,172.299V27.965h30.604v144.334H655.037z"/>
		<path fill="#0066BF" d="M777.65,172.299h-30.604V53.436h-39.192V27.965h108.99v25.471H777.65V172.299z"/>
	</g>
	<g>
		<path fill="#FFFFFF" d="M2.816,223.101v17.594H0v-40.377h9.611c5.007,0,8.708,0.925,11.102,2.775
			c2.393,1.85,3.59,4.636,3.59,8.354c0,2.707-0.714,4.99-2.141,6.848c-1.427,1.86-3.595,3.196-6.503,4.006l10.964,18.394h-3.369
			l-10.412-17.594H2.816z M2.816,220.672h7.706c3.406,0,6.048-0.761,7.926-2.28c1.878-1.519,2.817-3.759,2.817-6.724
			c0-3.075-0.92-5.312-2.762-6.711c-1.841-1.4-4.842-2.098-9.003-2.098H2.816V220.672z"/>
		<path fill="#FFFFFF" d="M77.169,240.694H55.103v-40.377h22.066v2.596H57.92v15.272h18.172v2.597H57.92v17.315h19.249V240.694z"/>
		<path fill="#FFFFFF" d="M127.247,226.442h-16.405l-5.634,14.252h-3.121l16.239-40.543h1.795l15.908,40.543h-3.176L127.247,226.442
			z M111.863,223.902h14.444l-5.496-14.555c-0.46-1.141-1.012-2.724-1.657-4.749c-0.497,1.767-1.041,3.369-1.629,4.804
			L111.863,223.902z"/>
		<path fill="#FFFFFF" d="M180.472,202.277c-5.063,0-9.05,1.621-11.958,4.861c-2.909,3.24-4.363,7.677-4.363,13.312
			c0,5.763,1.371,10.238,4.115,13.422c2.743,3.186,6.665,4.776,11.765,4.776c3.387,0,6.5-0.431,9.334-1.296v2.485
			c-2.669,0.938-6.002,1.408-9.998,1.408c-5.671,0-10.136-1.831-13.394-5.496c-3.259-3.663-4.888-8.782-4.888-15.355
			c0-4.106,0.778-7.723,2.333-10.853c1.556-3.131,3.793-5.546,6.711-7.25c2.918-1.703,6.311-2.555,10.177-2.555
			c3.94,0,7.466,0.737,10.578,2.209l-1.133,2.54C186.806,203.014,183.712,202.277,180.472,202.277z"/>
		<path fill="#FFFFFF" d="M249.108,240.694h-2.844v-19.857h-23.586v19.857h-2.816v-40.377h2.816v17.923h23.586v-17.923h2.844
			V240.694z"/>
		<path fill="#FFFFFF" d="M327.499,222.411l11.819-22.094h3.039l-13.449,24.772v15.604h-2.9v-15.384l-13.505-24.993h3.232
			L327.499,222.411z"/>
		<path fill="#FFFFFF" d="M403.51,220.45c0,6.407-1.603,11.475-4.806,15.203c-3.204,3.729-7.622,5.593-13.256,5.593
			c-5.616,0-10.025-1.863-13.229-5.593c-3.205-3.729-4.805-8.813-4.805-15.259c0-6.425,1.614-11.484,4.845-15.175
			c3.231-3.692,7.646-5.538,13.243-5.538c5.635,0,10.044,1.855,13.229,5.564C401.916,208.957,403.51,214.025,403.51,220.45z
			 M370.478,220.45c0,5.781,1.288,10.251,3.868,13.408c2.576,3.158,6.278,4.737,11.103,4.737c4.858,0,8.574-1.566,11.143-4.696
			c2.567-3.13,3.853-7.613,3.853-13.449c0-5.818-1.285-10.278-3.853-13.382c-2.568-3.101-6.265-4.653-11.089-4.653
			c-4.805,0-8.511,1.565-11.115,4.695C371.781,210.241,370.478,214.688,370.478,220.45z"/>
		<path fill="#FFFFFF" d="M463.971,200.317v26.125c0,4.641-1.344,8.268-4.033,10.882c-2.688,2.613-6.434,3.922-11.24,3.922
			c-4.676,0-8.326-1.313-10.951-3.935c-2.622-2.625-3.934-6.284-3.934-10.979v-26.015h2.844v26.125c0,3.887,1.077,6.91,3.233,9.072
			c2.152,2.164,5.2,3.246,9.14,3.246c3.849,0,6.83-1.063,8.948-3.191c2.117-2.125,3.176-5.075,3.176-8.851v-26.401H463.971z"/>
		<path fill="#FFFFFF" d="M499.271,223.101v17.594h-2.816v-40.377h9.61c5.008,0,8.709,0.925,11.103,2.775
			c2.394,1.85,3.59,4.636,3.59,8.354c0,2.707-0.713,4.99-2.139,6.848c-1.43,1.86-3.596,3.196-6.505,4.006l10.965,18.394h-3.37
			l-10.412-17.594H499.271z M499.271,220.672h7.705c3.407,0,6.049-0.761,7.927-2.28c1.879-1.519,2.817-3.759,2.817-6.724
			c0-3.075-0.921-5.312-2.763-6.711c-1.842-1.4-4.843-2.098-9.004-2.098h-6.683V220.672z"/>
		<path fill="#FFFFFF" d="M612.048,211.917c0,3.903-1.326,6.895-3.977,8.975c-2.651,2.081-6.409,3.121-11.268,3.121h-6.243v16.682
			h-2.816v-40.377h9.888C607.242,200.317,612.048,204.184,612.048,211.917z M590.561,221.581h5.552c4.548,0,7.834-0.748,9.858-2.249
			c2.026-1.501,3.037-3.936,3.037-7.306c0-3.111-0.956-5.417-2.87-6.917c-1.915-1.501-4.879-2.25-8.893-2.25h-6.685V221.581z"/>
		<path fill="#FFFFFF" d="M664.389,240.694h-22.066v-40.377h22.066v2.596h-19.25v15.272h18.173v2.597h-18.173v17.315h19.25V240.694z
			"/>
		<path fill="#FFFFFF" d="M714.466,226.442h-16.405l-5.633,14.252h-3.121l16.239-40.543h1.794l15.908,40.543h-3.176L714.466,226.442
			z M699.083,223.902h14.444l-5.496-14.555c-0.46-1.141-1.014-2.724-1.658-4.749c-0.496,1.767-1.039,3.369-1.629,4.804
			L699.083,223.902z"/>
		<path fill="#FFFFFF" d="M777.607,240.694h-3.454l-15.492-21.321l-5.386,4.75v16.571h-2.817v-40.377h2.817v20.988l4.473-4.474
			l15.826-16.515h3.59l-16.542,17.067L777.607,240.694z"/>
	</g>
</g>
<g id="Layer_3">
</g>
</svg>
